<svg width="170" height="58" viewBox="0 0 170 58" fill="none" xmlns="http://www.w3.org/2000/svg">
<path fill-rule="evenodd" clip-rule="evenodd" d="M77.3786 32.3758C78.153 32.3758 78.9199 32.4857 79.6781 32.7053C80.4491 32.9244 81.1688 33.2377 81.8354 33.6449C82.5201 34.0387 83.1293 34.5275 83.6619 35.1104L83.7778 35.2372L83.6684 35.3691L81.4666 38.0451L81.3148 37.8521C80.8132 37.2141 80.2126 36.719 79.5127 36.3641L79.5101 36.3622C78.8085 35.9916 78.1131 35.81 77.423 35.81C76.7827 35.81 76.1881 35.9353 75.637 36.1839L75.6364 36.1833C75.0981 36.4328 74.6153 36.7858 74.1877 37.2432C73.7767 37.6834 73.4561 38.2058 73.2274 38.8123C72.9995 39.4171 72.8845 40.0764 72.8844 40.7913C72.8844 41.4905 72.9993 42.1425 73.2274 42.7478C73.4562 43.3547 73.7775 43.885 74.1896 44.3414C74.6162 44.7821 75.0981 45.1346 75.6364 45.3994C76.1876 45.6481 76.7826 45.7733 77.423 45.7733C78.1012 45.7733 78.7833 45.6129 79.4702 45.2874C80.161 44.9447 80.7804 44.4902 81.3283 43.923L81.4731 43.7731L81.6153 43.9262L83.6832 46.1588L83.8086 46.2946L83.6825 46.4292C83.1222 47.0249 82.4855 47.5411 81.7749 47.9796L81.7756 47.9802C81.0801 48.4184 80.3462 48.7631 79.5745 49.0138L79.5713 49.0151C78.7975 49.2507 78.0217 49.3684 77.2453 49.3684C76.0504 49.3684 74.9419 49.1572 73.9225 48.7319L73.9193 48.7306C72.9183 48.291 72.0377 47.6857 71.2787 46.9157L71.2761 46.9131C70.5324 46.1275 69.9482 45.2163 69.5242 44.1817C69.0987 43.1433 68.8871 42.0198 68.8871 40.8145C68.8871 39.6243 69.0991 38.5163 69.5249 37.4929C69.9498 36.4718 70.5497 35.5746 71.3243 34.804C72.0987 34.0339 72.9954 33.4364 74.012 33.0123C75.0458 32.5874 76.1693 32.3758 77.3786 32.3758ZM77.9565 45.9394C77.8696 45.9497 77.7827 45.9573 77.6959 45.9626C77.8448 45.9535 77.9936 45.9369 78.1425 45.913C78.0805 45.9229 78.0185 45.932 77.9565 45.9394ZM75.5553 45.5803C75.4849 45.5457 75.4153 45.5095 75.3468 45.4721L75.5553 45.5803ZM71.1886 35.232C71.1049 35.3238 71.0236 35.4175 70.9446 35.5126C71.1077 35.3162 71.281 35.1271 71.464 34.945C71.3696 35.0389 71.2776 35.1343 71.1886 35.232Z" fill="white"/>
<path d="M93.7939 49.1155H89.8854V32.6062H93.7939V49.1155Z" fill="white"/>
<path d="M113.172 35.994H108.414V49.1155H104.505V35.994H99.769V32.6062H113.172V35.994Z" fill="white"/>
<path d="M121.233 32.7092L125.037 39.7281L128.757 32.7111L128.812 32.6062H132.793L126.994 43.6682V49.1155H123.085V43.7377L117.196 32.6062H121.177L121.233 32.7092Z" fill="white"/>
<path fill-rule="evenodd" clip-rule="evenodd" d="M77.5787 8.39638C78.3668 8.39639 79.1473 8.49834 79.9195 8.70209C80.6895 8.8899 81.4221 9.16344 82.1173 9.5233C82.8143 9.88411 83.4299 10.3168 83.9631 10.8214L84.095 10.9463L83.9818 11.0879L81.8644 13.7485L81.708 13.5908C81.1638 13.0423 80.5187 12.6111 79.7708 12.2985L79.7695 12.2978C79.0359 11.9851 78.3058 11.8306 77.5787 11.8306C76.909 11.8306 76.2928 11.9632 75.7278 12.2264L75.7239 12.2283C75.1556 12.4783 74.6586 12.8308 74.2321 13.287C73.8049 13.7441 73.4694 14.2758 73.2262 14.8831C72.9991 15.4869 72.8844 16.1448 72.8844 16.8583C72.8844 17.5713 73.0066 18.2369 73.2487 18.8566L73.3439 19.0812C73.5768 19.5974 73.8805 20.0616 74.2546 20.4752L74.4181 20.6426C74.8075 21.0215 75.2515 21.3266 75.7503 21.559C76.3154 21.8071 76.9312 21.9323 77.6012 21.9323C78.2085 21.9323 78.8734 21.7935 79.597 21.5088C79.8925 21.3926 80.1763 21.2584 80.4498 21.1098V16.6375H83.8917V23.1744L83.8099 23.2336C83.2493 23.6415 82.6073 24.0085 81.8856 24.3355C81.177 24.6631 80.4312 24.9208 79.6485 25.1078C78.8643 25.2951 78.1072 25.389 77.3786 25.389C76.1693 25.389 75.0465 25.1781 74.0126 24.7531L74.0094 24.7512C72.9938 24.3118 72.0982 23.7073 71.3243 22.9376C70.5492 22.1665 69.949 21.2614 69.5242 20.2249C69.0992 19.172 68.8871 18.0486 68.8871 16.8583C68.8871 15.6671 69.1068 14.5581 69.548 13.5341C69.9876 12.499 70.5943 11.5949 71.3688 10.8246L71.37 10.8233C72.1602 10.0526 73.0869 9.45521 74.1478 9.0316C75.2104 8.60731 76.3549 8.3964 77.5787 8.39638ZM81.8039 24.1559L82.0343 24.0491L82.0594 24.0362C81.9754 24.0767 81.8903 24.1167 81.8039 24.1559ZM75.6666 21.7386C75.7296 21.7663 75.7936 21.7913 75.8578 21.8158L75.6666 21.7386ZM69.9587 20.7063C69.9886 20.7666 70.0188 20.8266 70.05 20.8858C70.1125 21.0042 70.1779 21.1204 70.2457 21.2347C70.1439 21.0631 70.0486 20.8869 69.9587 20.7063ZM74.1098 20.611C74.0542 20.5497 74.0002 20.4866 73.9476 20.4231L74.1098 20.611ZM71.0032 11.5158C70.9975 11.5226 70.9921 11.5296 70.9865 11.5364C71.0663 11.4403 71.148 11.3458 71.2323 11.2533L71.0032 11.5158ZM82.0259 9.699L81.8007 9.58637C81.794 9.58315 81.7874 9.57993 81.7807 9.57672C81.8629 9.61635 81.9447 9.65698 82.0259 9.699ZM73.8382 9.3785C73.7187 9.4328 73.6012 9.48995 73.4855 9.54905C73.6041 9.48847 73.7246 9.43019 73.8472 9.37463L73.8382 9.3785Z" fill="white"/>
<path fill-rule="evenodd" clip-rule="evenodd" d="M119.302 8.39638C120.076 8.39639 120.843 8.50624 121.601 8.7259C122.372 8.94501 123.092 9.25829 123.759 9.66554C124.443 10.0593 125.053 10.5481 125.585 11.131L125.7 11.2578L125.592 11.3897L123.39 14.0657L123.238 13.8727C122.736 13.2347 122.136 12.7396 121.436 12.3847L121.433 12.3828C120.732 12.0121 120.036 11.8306 119.346 11.8306C118.706 11.8306 118.111 11.9558 117.56 12.2045L117.559 12.2038C117.021 12.4534 116.538 12.8065 116.111 13.2638C115.7 13.704 115.379 14.2264 115.151 14.8329C114.923 15.4377 114.808 16.097 114.808 16.8119C114.808 17.5111 114.923 18.1631 115.151 18.7684C115.379 19.3751 115.7 19.9057 116.112 20.362C116.54 20.8038 117.024 21.1562 117.563 21.4213C118.114 21.669 118.707 21.7939 119.346 21.7939C120.024 21.7939 120.706 21.6334 121.393 21.308C122.084 20.9653 122.703 20.5108 123.251 19.9436L123.396 19.7937L123.539 19.9468L125.606 22.1794L125.732 22.3152L125.605 22.4497C125.045 23.0454 124.409 23.5618 123.698 24.0001L123.699 24.0008C123.003 24.439 122.269 24.7837 121.498 25.0344L121.494 25.0357C120.72 25.2712 119.945 25.389 119.169 25.389C117.974 25.389 116.865 25.1778 115.846 24.7525L115.843 24.7512C114.842 24.3116 113.961 23.7063 113.202 22.9363L113.199 22.9337C112.455 22.1482 111.871 21.2367 111.447 20.2023C111.022 19.1639 110.81 18.0404 110.81 16.8351C110.81 15.6449 111.022 14.5369 111.448 13.5135C111.873 12.4924 112.473 11.5952 113.248 10.8246C114.022 10.0546 114.918 9.45697 115.935 9.03289H115.936C116.97 8.60794 118.092 8.39638 119.302 8.39638ZM115.21 24.2177C115.245 24.2372 115.281 24.2546 115.317 24.2737C115.254 24.2398 115.191 24.2051 115.129 24.1701L115.21 24.2177ZM122.298 12.6846L122.299 12.684C122.222 12.6273 122.143 12.5736 122.063 12.5211C122.143 12.5736 122.222 12.628 122.298 12.6846Z" fill="white"/>
<path fill-rule="evenodd" clip-rule="evenodd" d="M100.001 8.74907L106.739 25.1361H102.572L102.524 25.0093L101.332 21.913H94.4619L93.2642 25.0099L93.216 25.1361H89.1356L89.2515 24.8619L96.0329 8.74778L96.0844 8.62614H99.9505L100.001 8.74907ZM95.7099 18.6861H100.09L97.9045 13.0103L95.7099 18.6861Z" fill="white"/>
<path d="M135.717 15.3941H142.371V8.62614H146.28V25.1361H142.371V18.7137H135.717V25.1361H131.809V8.62614H135.717V15.3941Z" fill="white"/>
<path fill-rule="evenodd" clip-rule="evenodd" d="M162.744 8.74907L169.37 24.8632L169.483 25.1361H165.316L164.076 21.913H157.206L155.959 25.1361H151.879L151.995 24.8619L158.777 8.74778L158.828 8.62614H162.694L162.744 8.74907ZM158.454 18.6861H162.833L160.648 13.0103L158.454 18.6861Z" fill="white"/>
<path d="M55.5886 29.0733C55.5886 21.4652 52.6972 14.3122 47.4464 8.93185C46.3389 7.79708 45.1535 6.77134 43.9042 5.85644C43.5255 6.9971 43.125 8.32257 42.7295 9.82779C42.6013 10.3155 42.7717 10.8298 43.1462 11.1674C47.9979 15.5413 51.0639 21.9467 51.0639 29.0733C51.0639 36.2054 48.1298 42.3369 43.4615 46.689C43.1056 47.0208 42.9425 47.5149 43.0573 47.9877C43.3859 49.3409 43.7583 50.7111 44.1808 52.0839C45.3281 51.2217 46.4205 50.265 47.4455 49.2138C52.6954 43.8344 55.5877 36.6814 55.5877 29.0724L55.5886 29.0733Z" fill="white"/>
<path d="M40.5958 54.1754L40.6552 54.1436C40.6552 54.1436 37.1972 49.1003 35.8672 45.0118C35.8672 45.0118 36.1232 47.177 36.8282 49.7921C37.0011 50.4335 36.6976 51.1182 36.0791 51.3604C33.5056 52.3683 30.7141 52.9216 27.7986 52.9216C14.9651 52.9216 4.52463 42.2235 4.52463 29.0733C4.52463 15.9231 14.9651 5.22498 27.7977 5.22498C30.3578 5.22498 32.8217 5.65257 35.1266 6.43926C35.7199 6.64177 36.0573 7.25478 35.961 7.87426C35.5878 10.276 35.423 12.3943 35.423 12.3943C36.3035 9.44788 37.9988 6.50148 39.045 4.84612C39.3421 4.38367 39.6542 3.91941 39.9822 3.45696C36.2343 1.58082 32.0909 0.588695 27.7977 0.588695C20.3728 0.588695 13.3921 3.55145 8.14133 8.93183C2.8914 14.3122 0 21.4652 0 29.0733C0 36.6814 2.8914 43.8343 8.14221 49.2147C13.3921 54.5942 20.3728 57.5579 27.7986 57.5579C32.3676 57.5579 36.7672 56.4349 40.6995 54.318C40.665 54.2708 40.6304 54.2226 40.5967 54.1754H40.5958Z" fill="white"/>
<path d="M44.8544 0C44.8544 0 41.7276 5.80781 39.8879 17.0294C39.8237 17.4207 39.5891 17.7679 39.2464 17.9675L20.535 28.8662L34.7435 37.487L34.1991 33.0896C34.1455 32.6562 33.8807 32.2776 33.4921 32.0784L27.6283 29.0742L39.3952 22.6363C39.3952 22.6363 38.1158 41.0152 44.6522 57.3162C44.6522 57.3162 41.9293 54.1881 40.0797 50.8783C39.3776 49.6212 37.1623 45.3862 36.5197 44.1559C36.4037 43.9338 36.2281 43.7515 36.0111 43.6262L10.8066 29.0733L35.9488 13.5468C36.2036 13.3895 36.3957 13.1542 36.5043 12.8751C37.1997 11.0888 40.115 4.13709 44.8544 0Z" fill="white"/>
</svg>
